<svg xmlns="http://www.w3.org/2000/svg" width="40" height="35" fill="none"><path fill="#AFB1B8" fill-rule="evenodd" d="M17.1136 2.93452h-.1366c-.2099-.01271-.4199-.0178-.6299-.02289h-.4553c-.3972 0-.802.01018-1.2042.03052a.6253386.6253386 0 0 0-.091 0c-3.6444.20648-7.21489 1.11736-10.51611 2.68277l-.43259.20852V27.9746l1.01189-.3433c.88794-.3052 1.83405-.5798 2.81306-.8341 2.64645-.6794 5.36385-1.0405 8.09515-1.0756v2.909c-.3618.0026-.7134.0128-1.065.0306h-.0835c-2.102.1153-4.1878.4355-6.22821.9561-2.58413.647-5.07696 1.6184-7.419684 2.8913V4.11189C3.20469 2.69275 5.82533 1.62687 8.55557.945963 10.9527.327052 13.4169.009307 15.8918 0h.4275c.511.0127146 1.0094.0356008 1.4774.0712015 1.233.0865745 2.4561.2814265 3.6554.5823265V3.51685c-1.1647-.27134-2.3489-.4499-3.5416-.53401-.0242-.00205-.0484-.00412-.0726-.00618-.2468-.02105-.4939-.04214-.7243-.04214Zm5.0392 2.92686c.6349.04832 1.2927.07121 1.958.07121 2.6017-.00952 5.1923-.34176 7.7131-.9892 2.5829-.64943 5.0747-1.62161 7.4172-2.89383V29.9402c-2.4344 1.4183-5.0558 2.4841-7.7865 3.1659-2.3975.6166-4.8615.9334-7.3362.9435-1.8751.0151-3.7447-.2053-5.5654-.6561V5.32229c.43.09917.8727.19072 1.323.267.7387.12461 1.5179.21615 2.2768.27209Zm14.1943.21615-1.0119.34075c-.931.31278-1.8695.5925-2.8131.8417-2.7472.70598-5.5707 1.06812-8.4063 1.0782-.6602 0-1.2673-.0178-1.8542-.05594l-.807-.05341V31.0057l.6931.061c.6426.056 1.3054.0839 1.9732.0839 2.2335-.0094 4.4572-.2973 6.6203-.8569 1.7811-.4468 3.514-1.0694 5.1733-1.8589l.4326-.2085V6.07753Z" clip-rule="evenodd"/></svg>