<svg xmlns="http://www.w3.org/2000/svg" aria-hidden="true" style="position:absolute;width:0;height:0;overflow:hidden"><defs><symbol id="icon-antenna" viewBox="0 0 30 32"><path d="m29.859 22.098-8.443-8.505.937-4.615c.242.094.499.144.758.146h.006c1.192.014 2.17-.941 2.184-2.133s-.941-2.17-2.133-2.184c-1.192-.014-2.17.941-2.184 2.133-.003.255.039.509.125.749l-4.96.605L8.058.161C7.959.06 7.823.002 7.681.001c-.14.001-.274.056-.373.155L5.795 1.66c-.208.208-.208.546 0 .754l.814.826C3.456 9.038 4.48 16.218 9.128 20.903c.043.041.092.074.146.098-.034.18-.051.364-.052.547v6.187h-6.4C1.35 27.737.157 28.93.155 30.402v1.067c0 .295.239.533.533.533h24.533c.295 0 .533-.239.533-.533v-1.067c-.002-1.472-1.195-2.665-2.667-2.667h-6.4v-2.742c1.003.21 2.024.317 3.049.32 2.458-.003 4.877-.615 7.04-1.783l.818.823c.099.101.235.159.377.16.14-.001.274-.056.373-.155l1.513-1.504c.208-.208.208-.546 0-.754zM22.366 6.233c.418-.415 1.093-.414 1.508.004s.414 1.093-.004 1.508c-.2.199-.47.31-.752.31h-.003c-.589-.003-1.064-.483-1.061-1.072.002-.282.115-.552.314-.751h-.002zM21.11 9.738l-.598 2.946-1.175-1.182 1.774-1.763zm-.606-.902-1.92 1.909-1.485-1.493 3.405-.415zM23.09 28.8c.884 0 1.6.716 1.6 1.6v.533H1.223V30.4c0-.884.716-1.6 1.6-1.6H23.09zm-7.467-2.133v1.067H10.29v-1.067h5.333zM10.29 25.6v-4.053c0-1.294 1.196-2.347 2.667-2.347s2.667 1.053 2.667 2.347V25.6h-5.333zm6.4-1.696v-2.357c0-1.882-1.675-3.413-3.733-3.413-1.331-.02-2.576.657-3.281 1.786C5.618 15.646 4.705 9.275 7.397 4.033l18.602 18.708c-2.872 1.461-6.165 1.873-9.309 1.163zm11.289-.684L6.922 2.039l.755-.752 7.935 7.98c.004 0 .006.007.01.01l13.115 13.191-.757.752z"/></symbol><symbol id="icon-astronaut" viewBox="0 0 32 32"><path fill="#2196f3" d="M31.974 4.524c-.063-.193-.229-.333-.43-.363l-1.91-.278-.855-1.731c-.179-.365-.777-.365-.956 0l-.855 1.731-1.91.278c-.201.029-.367.17-.431.363-.062.193-.011.405.135.547l1.383 1.348-.326 1.903c-.034.2.048.402.212.522.166.121.382.135.562.04l1.709-.899 1.709.899c.078.041.164.061.249.061.11 0 .221-.034.314-.102.164-.119.246-.322.212-.522l-.326-1.903 1.383-1.348c.145-.142.197-.354.135-.547zm-2.463 1.327c-.125.122-.183.299-.153.472l.191 1.114-1-.526c-.078-.041-.163-.061-.249-.061s-.17.02-.249.061l-1.001.526.191-1.114c.03-.173-.028-.349-.153-.472l-.81-.789 1.119-.163c.174-.025.324-.134.402-.292l.5-1.013.5 1.013c.078.157.228.267.402.292l1.119.163-.809.789zm-3.377 14.671h-1.067v1.067h1.067v-1.067zm0 2.134h-1.067v1.067h1.067v-1.067zm1.066-1.067h-1.067v1.067H27.2v-1.067zm-2.133 0H24v1.067h1.067v-1.067zm-2.667 4.8h-1.067v1.067H22.4v-1.067zm0 2.133h-1.067v1.067H22.4v-1.067zm1.067-1.066H22.4v1.067h1.067v-1.067zm-2.134 0h-1.067v1.067h1.067v-1.067zM16 24.256h-1.067v1.067H16v-1.067zm0 2.133h-1.067v1.067H16v-1.067zm1.067-1.067H16v1.067h1.067v-1.067zm-2.134 0h-1.067v1.067h1.067v-1.067zm-9.066-19.2H4.8v1.067h1.067V6.122zm0 2.133H4.8v1.067h1.067V8.255z" style="fill:var(--color1, #2196f3)"/><path fill="#2196f3" d="M6.933 7.189H5.866v1.067h1.067V7.189zm-2.133 0H3.733v1.067H4.8V7.189z" style="fill:var(--color1, #2196f3)"/><path fill="#212121" d="M24.715 14.159c-.287-.388-.709-.637-1.188-.705-.481-.068-.956.058-1.34.352l-1.252.96-1.898 1.417-1.358-.541c2.421-1.086 4.114-3.508 4.114-6.32 0-3.823-3.123-6.933-6.961-6.933s-6.961 3.11-6.961 6.933c0 1.386.414 2.674 1.12 3.758l-2.769-.024c-.009 0-.015.004-.023.005-.053.002-.105.013-.155.031-.013.005-.026.008-.038.013-.006.003-.013.003-.019.006l-3.233 1.596c-.001 0-.001 0-.001.001l-1.893.911c-.021.009-.042.021-.063.035-.755.502-1.012 1.489-.598 2.295.22.429.595.745 1.056.889.178.055.359.083.539.083.29 0 .577-.071.839-.211l1.388-.738 2.264-1.169 1.357-.008L2.2 22.211c-.001.001-.001.001-.002.001L.859 23.545c-.316.315-.49.732-.49 1.178s.174.863.49 1.179c.325.323.752.485 1.179.485s.854-.162 1.18-.485l1.314-1.309 1.741-1.3.901.897-1.762 1.754c0 .001-.001.001-.002.001l-1.339 1.333c-.316.315-.49.732-.49 1.178s.174.863.49 1.179c.325.323.753.485 1.18.485s.855-.162 1.18-.485l3.482-3.467c.001-.001.001-.001.001-.002l1.01-1-.004-.004c.006-.006.015-.009.022-.015l5.166-5.658 3.471.494c.025.004.05.005.075.005.065 0 .127-.015.187-.038.018-.006.033-.015.05-.023.019-.01.039-.015.058-.027l3.213-2.133c.012-.008.018-.021.029-.029.013-.01.029-.014.041-.026l1.271-1.191c.662-.62.753-1.635.212-2.362zM2.13 17.77c-.173.093-.37.111-.558.052-.187-.058-.338-.186-.427-.358-.161-.314-.068-.695.214-.902l1.314-.632.449 1.312-.992.528zm3.498-1.828-1.548.8-.439-1.283 2.027-1.001-.04 1.484zm15.099-6.62c0 .918-.219 1.785-.599 2.559l-4.181-1.899c-.044-.573-.341-1.075-.788-1.388l1.464-4.86c2.378.756 4.105 2.974 4.105 5.588zm-11.789 0c0-3.235 2.644-5.867 5.894-5.867.253 0 .5.021.745.052l-1.432 4.754c-.019-.001-.037-.006-.057-.006-1.033 0-1.873.837-1.873 1.867s.84 1.867 1.873 1.867c.694 0 1.294-.383 1.618-.945l3.862 1.755c-1.075 1.446-2.795 2.39-4.737 2.39-3.25 0-5.894-2.632-5.894-5.867zm5.956.8c0 .441-.362.8-.806.8s-.806-.359-.806-.8c0-.441.362-.8.806-.8s.806.359.806.8zM2.465 25.146c-.236.234-.619.234-.854.001-.114-.114-.176-.263-.176-.423s.062-.309.176-.421l.962-.958.851.848-.959.955zm3.214 3.734c-.236.234-.619.235-.855.001-.114-.114-.176-.263-.176-.423s.062-.309.176-.421l.963-.959.852.848-.96.955zm3.481-3.469c-.001 0-.001 0-.002.001l-1.765 1.76-.852-.848 1.763-1.756c.001-.001.001-.001.002-.001.04-.04.065-.088.09-.135.007-.014.02-.026.026-.04.017-.041.019-.085.026-.129.003-.025.014-.047.014-.073 0-.036-.013-.07-.02-.106-.006-.032-.006-.065-.019-.095-.02-.05-.055-.094-.091-.138-.01-.012-.014-.027-.025-.038h-.001c-.001 0-.001-.002-.001-.002l-1.607-1.6c-.017-.017-.039-.024-.058-.038-.028-.022-.055-.042-.087-.058-.03-.015-.061-.024-.093-.033-.034-.01-.067-.017-.103-.02-.033-.002-.063.001-.095.005-.036.004-.069.009-.104.02-.034.011-.063.027-.094.045-.02.011-.042.015-.061.029L4.23 23.485l-.901-.897 2.399-2.386 4.361 4.289-.928.919zm6.819-7.017c-.015-.002-.03.004-.045.003-.039-.002-.076.001-.115.007-.03.005-.059.011-.088.021-.034.012-.065.028-.097.047-.03.018-.057.037-.083.061-.013.011-.028.017-.04.029l-4.698 5.146-4.328-4.257 2.833-2.818c.209-.208.21-.546.002-.755-.105-.105-.243-.157-.381-.156v-.001l-2.219.013.028-1.607 3.104.027c1.265 1.294 3.029 2.101 4.981 2.101.437 0 .864-.045 1.279-.123.04.032.079.065.13.085l2.41.96.331 1.644-3.003-.427zm4.041.178-.313-1.558 1.446-1.08.947 1.257-2.08 1.381zm3.754-2.831-.838.785-.931-1.236.831-.637c.155-.119.351-.168.543-.143.193.027.364.128.48.284.217.292.18.699-.085.947z" style="fill:var(--color2, #212121)"/><path fill="#212121" d="m13.602 18.544-2.143-2.133c-.207-.207-.545-.207-.753 0l-2.142 2.133c-.1.101-.157.236-.157.378s.056.278.157.378l2.142 2.133c.104.103.241.155.377.155s.273-.052.376-.155l2.143-2.133c.1-.1.157-.236.157-.378s-.057-.278-.157-.378zm-2.519 1.759-1.387-1.381 1.387-1.381 1.387 1.381-1.387 1.381zm6.081-15.232-.258 1.036c.071.018 1.738.452 1.738 2.149h1.067c0-2.017-1.666-2.965-2.547-3.185zm2.547 4.251h-1.067v1.067h1.067V9.322z" style="fill:var(--color2, #212121)"/></symbol><symbol id="icon-brand" viewBox="0 0 43 32"><path fill="#afb1b8" d="M3.239 26.373c.166.188.254.424.25.665.001.015.001.033.001.05 0 .149-.033.29-.093.416l.003-.006c-.072.152-.172.279-.296.378l-.002.002c-.282.194-.631.31-1.007.31-.041 0-.082-.001-.123-.004h.006H.001V23.97h1.936c.034-.002.074-.004.115-.004.356 0 .688.106.965.287l-.007-.004c.125.097.225.218.289.354.065.138.095.286.086.436.011.232-.068.461-.225.644-.15.168-.358.283-.59.33.262.044.499.172.667.361zM.92 25.737h.828c.188.012.374-.037.526-.14.06-.05.108-.113.14-.184l.001-.003c.024-.054.038-.118.038-.185 0-.014-.001-.028-.002-.042v.002c.001-.011.001-.023.001-.035 0-.068-.014-.133-.04-.192l.001.003c-.033-.075-.079-.137-.138-.187l-.001-.001c-.134-.091-.298-.145-.476-.145-.023 0-.046.001-.069.003h.003-.815v1.106zm1.435 1.616c.065-.051.116-.116.151-.19l.001-.003c.028-.059.044-.128.044-.202 0-.012 0-.023-.001-.035v.002c.001-.009.001-.02.001-.031 0-.075-.017-.147-.047-.21l.001.003c-.037-.078-.09-.143-.154-.193l-.001-.001c-.142-.097-.318-.154-.507-.154-.019 0-.039.001-.058.002h.003H.92v1.16h.88c.197.01.394-.041.556-.146zm4.842.832-1.076-1.648h-.405v1.648h-.927V23.97h1.755c.037-.003.081-.004.125-.004.413 0 .794.136 1.1.366l-.005-.003c.245.229.394.53.417.85.002.026.003.057.003.088 0 .307-.109.589-.291.808l.002-.002c-.218.224-.506.378-.829.427l-.008.001 1.147 1.684H7.197zm-1.482-2.222h.758c.526 0 .79-.212.79-.638.001-.01.001-.022.001-.034 0-.08-.016-.156-.045-.225l.001.004c-.036-.086-.087-.159-.15-.218-.144-.109-.326-.174-.523-.174-.026 0-.051.001-.077.003h.003-.767l.009 1.283zm6.547 1.373h-1.846l-.326.849h-.972l1.695-4.168h1.051l1.689 4.168h-.971l-.319-.848zm-.247-.638-.675-1.779-.675 1.779h1.349zm6.587 1.487h-.919l-2.063-2.866v2.866h-.918v-4.216h.918l2.063 2.883v-2.883h.919v4.216zm5.25-1.009c-.191.318-.48.577-.833.744-.358.168-.777.267-1.219.267-.026 0-.053 0-.079-.001h.004-1.637v-4.215h1.637c.023-.001.05-.001.077-.001.441 0 .859.096 1.235.267l-.019-.008c.352.163.642.419.832.735.189.343.288.722.288 1.106s-.099.763-.288 1.106zm-1.052-.101c.25-.261.404-.616.406-1.006 0-.369-.144-.726-.406-1.006-.285-.226-.65-.362-1.047-.362-.037 0-.074.001-.11.004h.005-.639v2.729h.639c.032.002.069.003.106.003.396 0 .761-.136 1.05-.364l-.004.003zM12.838.522s11.873 4.104 11.621 10.043V20.61s-11.864-4.106-11.617-10.045L12.838.522zm22.199 17.737c2.243-1.413 4.836-2.288 7.544-2.545v-3.146c-3.12 1.102-5.767 3.098-7.544 5.691z" style="fill:var(--color3, #afb1b8)"/><path fill="#afb1b8" d="M33.69 19.207c1.835-3.384 5.017-5.995 8.891-7.297V2.849S25.672 8.695 26.029 17.153v14.302s.754-.261 1.939-.752c0-.457 0-.918.054-1.382.349-3.926 2.388-7.564 5.667-10.115z" style="fill:var(--color3, #afb1b8)"/><path fill="#afb1b8" d="M32.082 24.52c.089-.992.287-1.973.592-2.928-2.043 2.203-3.279 4.936-3.536 7.816-.025.272-.039.543-.045.824 1.41-.617 2.478-1.142 3.524-1.703l-.273.133c-.3-1.362-.388-2.757-.263-4.142zm.672.051c-.033.348-.052.752-.052 1.161 0 .917.095 1.811.276 2.674l-.015-.084c4.62-2.531 9.811-6.442 9.61-11.168v-.412c-3.301.338-6.388 1.659-8.79 3.76-.53 1.19-.895 2.571-1.026 4.019l-.004.051z" style="fill:var(--color3, #afb1b8)"/></symbol><symbol id="icon-clock" viewBox="0 0 32 32"><path fill="#212121" d="M31.297 15.301C31.295 6.849 24.442-.002 15.989 0S.686 6.855.688 15.308c.001 6.658 4.307 12.551 10.649 14.576.061.019.124.029.187.029.121 0 .239-.032.342-.094.135-.08.236-.207.283-.356l3.865-12.25c1.057-.005 1.909-.866 1.903-1.923s-.866-1.909-1.923-1.903c-.284.001-.565.067-.82.191l-5.106-5.107c-.253-.245-.657-.238-.902.016-.239.247-.239.639 0 .886l5.103 5.109c-.392.799-.168 1.764.536 2.309l-3.683 11.673C3.844 25.783.118 17.71 2.799 10.432S13.553-.572 20.831 2.109s11.004 10.754 8.323 18.032c-1.31 3.556-4.001 6.431-7.462 7.973l-.398-1.874c-.073-.344-.411-.565-.756-.492-.109.023-.209.074-.292.148l-3.837 3.426c-.263.234-.287.637-.052.9.076.085.174.149.283.184l4.899 1.563c.335.108.694-.077.802-.412.034-.106.04-.219.017-.328l-.391-1.839c5.664-2.388 9.342-7.942 9.329-14.089zm-15.305-.637c.352 0 .638.286.638.638s-.286.638-.638.638c-.352 0-.638-.285-.638-.638s.285-.638.638-.638zm2.101 14.864 2.184-1.948.603 2.84-2.787-.892z" style="fill:var(--color2, #212121)"/><path fill="#2196f3" d="M15.354 3.185V4.46c0 .352.285.638.638.638s.638-.285.638-.638V3.185c0-.352-.286-.638-.638-.638s-.638.286-.638.638zM3.876 14.664c-.352 0-.638.286-.638.638s.285.638.638.638h1.275c.352 0 .638-.285.638-.638s-.285-.638-.638-.638H3.876zm24.232 1.275c.352 0 .638-.285.638-.638s-.285-.638-.638-.638h-1.275c-.352 0-.638.286-.638.638s.286.638.638.638h1.275z" style="fill:var(--color1, #2196f3)"/></symbol><symbol id="icon-company-2" viewBox="0 0 34 32"><path fill="#afb1b8" d="M5.643 31.315c.012 0 .024.003.035.007s.021.011.029.018l.166.159c-.129.129-.288.231-.467.302-.21.076-.435.113-.663.108-.213.004-.426-.031-.623-.101-.178-.065-.338-.162-.469-.285-.134-.128-.237-.278-.303-.44-.073-.182-.108-.373-.106-.565-.003-.193.036-.386.114-.567.073-.164.182-.314.322-.44.142-.124.312-.222.499-.287.205-.069.422-.103.642-.101.204-.004.407.027.596.092.165.062.316.148.447.255l-.139.17c-.01.012-.022.022-.035.031-.016.01-.036.014-.056.013-.022-.001-.042-.008-.06-.018l-.075-.045-.104-.058c-.045-.021-.091-.04-.139-.056-.062-.019-.125-.034-.189-.045-.082-.013-.164-.019-.247-.018-.158-.002-.315.024-.461.076-.136.048-.26.121-.361.213-.104.098-.183.214-.235.339-.058.144-.087.295-.085.448-.002.155.026.309.085.455.051.125.129.239.231.338.095.092.213.163.345.209.136.049.281.073.428.072.085.001.17-.004.253-.014.137-.015.268-.056.384-.121.058-.033.113-.071.164-.112.021-.018.049-.028.079-.029zm4.798-.798c.003.192-.035.382-.112.561-.068.163-.174.311-.313.436s-.306.222-.491.286c-.407.135-.856.135-1.263 0-.184-.065-.35-.163-.488-.287-.138-.127-.246-.276-.316-.44-.15-.364-.15-.761 0-1.125.071-.164.178-.314.316-.442.139-.12.305-.214.488-.276.406-.137.857-.137 1.263 0 .185.065.351.163.49.287.137.125.243.273.314.435.077.181.115.372.112.565zm-.436 0c.003-.153-.023-.306-.079-.451-.047-.125-.122-.239-.222-.338-.097-.093-.217-.166-.351-.213-.296-.099-.623-.099-.918 0-.134.047-.254.12-.351.213-.101.097-.178.212-.224.338-.106.294-.106.609 0 .903.047.125.123.24.224.338.098.092.217.164.351.211.296.096.622.096.918 0 .134-.047.254-.119.351-.211.1-.098.175-.213.222-.338.056-.145.082-.298.079-.451zm3.71.473.044.101c.017-.036.031-.069.048-.101.016-.034.034-.067.054-.099l1.062-1.677c.021-.029.039-.047.06-.052.028-.007.058-.011.087-.009h.314v2.727h-.372v-2.09c-.001-.014-.002-.03-.002-.047s.001-.033.002-.049v.002l-1.068 1.7c-.014.025-.035.047-.063.062s-.059.023-.091.023h-.06c-.032 0-.064-.007-.091-.022s-.049-.037-.062-.062l-1.099-1.711v2.189h-.359v-2.722h.314c.03-.002.059.002.087.009.026.011.046.03.058.052l1.084 1.678c.021.031.039.064.054.097zm3.995-.135v1.021h-.415v-2.723h.926c.175-.003.349.017.517.059.134.033.259.091.366.17.092.074.163.165.208.267.049.111.073.229.071.348.002.119-.024.238-.077.348-.05.104-.127.198-.224.273-.107.082-.232.143-.368.18-.162.045-.331.066-.501.063l-.503-.007zm0-.293h.503c.109.001.218-.013.322-.041.086-.025.165-.065.233-.117.062-.05.111-.112.141-.18.034-.073.051-.151.05-.229.005-.076-.009-.151-.042-.222s-.082-.134-.145-.186c-.159-.108-.358-.16-.559-.146h-.503v1.122zm5.584 1.318h-.328c-.033.001-.065-.008-.091-.025-.024-.017-.042-.039-.054-.063l-.282-.659H21.12l-.293.659c-.011.024-.029.045-.052.061-.026.018-.06.028-.093.027h-.328l1.246-2.727h.432l1.263 2.727zm-2.057-1.013h1.172l-.494-1.11c-.038-.084-.069-.169-.093-.256l-.048.143c-.014.043-.031.083-.046.116l-.49 1.108zm3.852-1.702c.025.012.046.029.062.049l1.818 2.056v-2.117h.372v2.727h-.208c-.03.001-.059-.005-.085-.016-.026-.013-.048-.03-.067-.05l-1.816-2.054c.002.031.002.063 0 .094v2.027h-.372v-2.727h.22c.026-.001.051.004.075.013zm5.313 1.63v1.083h-.415v-1.083l-1.149-1.642h.372c.032-.002.064.007.089.023.023.018.042.038.056.061l.719 1.059c.029.045.054.087.075.126s.037.078.052.116l.054-.117c.02-.043.044-.084.071-.125l.708-1.067c.015-.021.033-.041.054-.058.025-.019.057-.028.089-.027h.376l-1.151 1.65zM13.51 24.576c.181.02.364.036.548.051 2.803-1.089 5.174-2.873 6.817-5.126s2.485-4.878 2.421-7.546l-3.089-2.684c.628 2.84.334 5.776-.849 8.479s-3.208 5.067-5.849 6.827z" style="fill:var(--color3, #afb1b8)"/><path fill="#afb1b8" d="m12.407 24.451.083.014c2.822-1.754 4.974-4.203 6.176-7.03s1.402-5.904.571-8.83l-4.4-3.823c1.78 3.142 2.496 6.659 2.066 10.141s-1.989 6.786-4.496 9.528zm14.921-9.345c-.747 2.931-2.563 5.574-5.177 7.537-.763.576-1.587 1.09-2.46 1.534 2.128-.544 4.085-1.504 5.718-2.809s2.9-2.917 3.703-4.714l-1.784-1.549z" style="fill:var(--color3, #afb1b8)"/><path fill="#afb1b8" d="m26.628 14.674-2.541-2.207c-.049 2.517-.872 4.976-2.385 7.123s-3.66 3.902-6.217 5.084h.012c.57 0 1.139-.03 1.705-.088 2.39-.848 4.502-2.196 6.147-3.926s2.771-3.785 3.278-5.985zM12.774 3.17 9.743.533c-2.709.91-5.04 2.509-6.686 4.588S.526 9.663.517 12.187c.01 2.789 1.09 5.495 3.07 7.69s4.745 3.754 7.859 4.43c2.78-2.942 4.407-6.579 4.646-10.38s-.924-7.569-3.319-10.757zM33.63 14.268c-.011-3.309-1.529-6.479-4.221-8.818s-6.342-3.658-10.15-3.668c-1.76-.002-3.504.281-5.146.832L32.67 18.737c.635-1.425.961-2.94.96-4.469z" style="fill:var(--color3, #afb1b8)"/></symbol><symbol id="icon-company" viewBox="0 0 67 32"><path fill="#afb1b8" d="M33.724 15.223c-.271-.35-.435-.795-.435-1.278 0-.048.002-.095.005-.142v.006-2.051c0-.628.142-1.106.428-1.433.284-.327.774-.489 1.468-.488.652 0 1.116.139 1.389.417.299.355.444.789.411 1.226v.482h-1.166v-.489c.004-.159-.007-.319-.034-.477-.02-.116-.081-.214-.166-.283l-.001-.001c-.105-.07-.234-.112-.373-.112-.018 0-.035.001-.052.002h.002c-.015-.001-.033-.002-.05-.002-.147 0-.283.044-.397.12l.003-.002c-.096.077-.166.185-.193.309l-.001.004c-.03.14-.047.302-.047.467v.042-.002 2.488c-.019.24.033.48.149.698.061.075.139.133.23.168l.004.001c.068.027.148.043.231.043.025 0 .05-.001.074-.004H35.2c.015.001.032.002.049.002.136 0 .262-.043.365-.116l-.002.001c.09-.075.153-.18.174-.299v-.003c.027-.165.04-.332.036-.498v-.505h1.167v.461c.003.036.004.079.004.122 0 .443-.153.85-.41 1.171l.003-.004c-.268.304-.725.457-1.397.457s-1.179-.163-1.466-.501zm4.859.022c-.295-.32-.442-.784-.442-1.399v-2.157c0-.609.147-1.07.442-1.383s.787-.469 1.478-.467c.686 0 1.176.156 1.471.467.294.313.444.774.444 1.383v2.156c0 .609-.149 1.077-.449 1.398s-.787.481-1.466.481-1.181-.163-1.479-.479zm2.021-.518c.106-.199.154-.419.14-.638v-2.641c.001-.021.002-.046.002-.071 0-.203-.052-.394-.142-.561l.003.006c-.062-.076-.142-.135-.234-.17l-.004-.001c-.068-.027-.146-.042-.229-.042-.028 0-.056.002-.083.005h.003c-.024-.003-.051-.005-.079-.005-.083 0-.161.015-.234.043l.004-.002c-.096.036-.177.096-.239.171l-.001.001c-.107.195-.154.41-.14.626V14.1c-.014.22.033.439.14.639.068.067.152.121.246.158.089.036.192.056.3.056s.211-.021.305-.058l-.006.002c.095-.037.178-.091.246-.158v-.013zm2.777-4.825h1.256l.944 3.979.967-3.979h1.222l.124 5.743h-.904l-.097-3.991-.932 3.991h-.725l-.966-4.006-.09 4.006h-.913l.114-5.743zm5.92 0h1.957c1.127 0 1.691.543 1.691 1.631 0 1.041-.594 1.562-1.781 1.56h-.666v2.552h-1.208l.007-5.744zm1.672 2.454c.119.014.24.004.356-.028.114-.031.22-.083.309-.154.139-.194.2-.422.174-.649.001-.019.001-.041.001-.063 0-.163-.022-.321-.062-.471l.003.013c-.019-.061-.05-.114-.089-.158-.042-.047-.093-.086-.149-.114l-.003-.001c-.141-.059-.304-.094-.476-.094-.022 0-.044.001-.066.002h.003-.469v1.717h.469zm3.719-2.454h1.297l1.331 5.743h-1.126l-.263-1.324h-1.157l-.27 1.324h-1.143l1.331-5.743zm1.108 3.753-.452-2.411-.452 2.411h.903zm2.594-3.753h.846l1.618 3.276V9.902h1.003v5.743h-.804l-1.628-3.42v3.42h-1.036l.002-5.743zm5.815 3.552-1.345-3.545h1.133l.821 2.278.77-2.278h1.109l-1.329 3.546v2.19h-1.159v-2.19zM35.59 18.156v.3h-.986v2.334h-.413v-2.334H33.2v-.3h2.389zm3.089 2.634h-.328c-.03 0-.058-.009-.081-.025-.023-.015-.041-.035-.052-.06v-.001l-.285-.626h-1.367l-.284.626c-.009.028-.024.052-.044.071-.023.016-.052.025-.082.025h-.326l1.208-2.634h.42l1.223 2.624zm-2-.978h1.14l-.484-1.072c-.031-.067-.061-.15-.086-.235l-.003-.014c-.017.05-.031.098-.045.14l-.044.11-.478 1.07zm4.083.719c.076.004.151.004.228 0 .065-.006.129-.016.193-.031.059-.012.117-.028.174-.048.053-.018.107-.042.161-.065v-.592h-.487c-.023 0-.044-.008-.061-.022-.008-.006-.014-.013-.018-.021-.004-.007-.006-.015-.006-.024V19.523h.937v1.01c-.147.091-.316.165-.496.211l-.013.003c-.1.026-.2.043-.302.055-.117.011-.235.016-.353.016h-.015c-.212 0-.416-.036-.606-.102l.013.004c-.186-.065-.347-.158-.486-.277l.002.002c-.129-.114-.234-.253-.308-.409l-.003-.008c-.07-.156-.111-.338-.111-.529v-.019.001-.016c0-.193.04-.377.112-.543l-.003.009c.069-.156.176-.299.311-.417.138-.119.302-.211.484-.273.206-.068.427-.101.647-.098.112 0 .225.007.336.023.098.014.195.036.287.067.085.027.166.063.242.105.074.041.144.087.211.137l-.116.163c-.01.015-.023.027-.039.035h-.001c-.016.009-.035.014-.055.014-.028-.001-.053-.008-.075-.021h.001c-.049-.023-.088-.044-.126-.066l.007.004c-.045-.025-.099-.049-.154-.069l-.008-.002c-.062-.022-.136-.042-.213-.057l-.009-.001c-.087-.015-.188-.023-.29-.023h-.017.001-.015c-.162 0-.317.027-.462.076l.01-.003c-.134.046-.256.117-.356.208-.095.09-.171.199-.222.321l-.002.006c-.051.13-.081.281-.081.439s.03.309.084.448l-.003-.008c.053.124.135.237.242.332.099.09.219.161.352.208.154.046.316.063.479.052zm3.85-.041h1.319v.3h-1.722v-2.634h.412l-.009 2.334zm2.691.3h-.412v-2.634h.412v2.634zm1.537-2.621c.025.012.046.028.063.047l1.766 1.985c-.001-.014-.002-.03-.002-.047s.001-.033.002-.049v.002-1.963h.36v2.645h-.222c-.027 0-.054-.006-.077-.016h.001c-.025-.013-.047-.03-.065-.05l-1.764-1.984v2.048h-.346v-2.634h.215c.023 0 .047.004.068.012zm5.23-.013v.289h-1.463v.87h1.186v.279h-1.186v.9h1.463v.289h-1.889v-2.628h1.889zM10.782 1.889l18.343 4.496v15.757l-18.343-4.494V1.888zM9.605.545v17.868l20.693 5.075V5.622L9.605.546z" style="fill:var(--color3, #afb1b8)"/><path fill="#afb1b8" d="M20.696 31.781 0 26.702V8.837l20.696 5.077v17.867z" style="fill:var(--color3, #afb1b8)"/><path fill="#afb1b8" d="m9.948 1.686 18.103 4.44-7.698 6.649L2.246 8.333l7.702-6.647zM9.605.545 0 8.837l20.696 5.077 9.603-8.294L9.606.545zM21.86 30.776l8.439-7.288-8.439-2.069v9.358z" style="fill:var(--color3, #afb1b8)"/></symbol><symbol id="icon-diagram" viewBox="0 0 32 32"><path fill="#2196f3" d="M14.926 14.965h1.066v4.798h-1.066v-4.797zm4.264 2.132h1.066v2.665H19.19v-2.665zm-8.529 1.599h1.066v1.066h-1.066v-1.066zm-3.198-.533h1.066v1.599H7.463v-1.599z" style="fill:var(--color1, #2196f3)"/><path fill="#212121" d="M1.599 28.291h25.587c.883 0 1.599-.716 1.599-1.599V24.56c0-.883-.716-1.599-1.599-1.599h-.533V9.668L29.681 6.8c.703.346 1.553.136 2.013-.499s.396-1.508-.152-2.068-1.42-.644-2.065-.198c-.644.446-.873 1.292-.542 2.002L26.654 8.2V6.97c0-.883-.716-1.599-1.599-1.599H3.733c-.883 0-1.599.716-1.599 1.599v15.992h-.533c-.883 0-1.599.716-1.599 1.599v2.132c0 .883.716 1.599 1.599 1.599zM30.384 4.837c.294 0 .533.239.533.533s-.239.533-.533.533c-.294 0-.533-.239-.533-.533s.239-.533.533-.533zM3.198 6.969c0-.294.239-.533.533-.533h21.322c.294 0 .533.239.533.533v2.239l-1.066 1.013V8.035c0-.294-.239-.533-.533-.533H4.797c-.294 0-.533.239-.533.533v13.326c0 .294.239.533.533.533h19.19c.294 0 .533-.239.533-.533v-9.674l1.066-1.01v12.284H3.198V6.969zm4.798 6.93c-.721-.002-1.354.478-1.546 1.174s.105 1.433.725 1.801c.62.368 1.41.276 1.928-.226l1.853.93c.215.108.476.057.636-.123l3.939-4.431 3.872 2.901c.208.156.498.139.686-.039l3.365-3.188v8.131H5.33V8.569h18.124v2.66l-3.771 3.572-3.904-2.927c-.222-.166-.534-.135-.718.072l-3.993 4.493-1.493-.746c.011-.064.018-.129.02-.193 0-.883-.716-1.599-1.599-1.599zm.533 1.599c0 .294-.239.533-.533.533s-.533-.239-.533-.533c0-.294.239-.533.533-.533s.533.239.533.533zm3.198 8.529h5.331v.533c0 .294-.239.533-.533.533h-4.264c-.294 0-.533-.239-.533-.533v-.533zm-10.661.533c0-.294.239-.533.533-.533h9.062v.533c0 .883.716 1.599 1.599 1.599h4.264c.883 0 1.599-.716 1.599-1.599v-.533h9.062c.294 0 .533.239.533.533v2.132c0 .294-.239.533-.533.533H1.598c-.294 0-.533-.239-.533-.533V24.56z" style="fill:var(--color2, #212121)"/></symbol><symbol id="icon-envelope" viewBox="0 0 64 32"><path fill="#2196f3" d="M3.093 0H.32C.144 0 0 .144 0 .32v1.92c0 .176.144.32.32.32h2.773c.176 0 .32-.144.32-.32V.32c0-.176-.144-.32-.32-.32zm0 .213c.014 0 .028.003.041.008L1.706 1.458.278.221C.291.216.304.213.319.213h2.773zm0 2.134H.32c-.059 0-.107-.048-.107-.107V.447l1.423 1.234c.02.017.045.026.07.026s.05-.009.07-.026L3.199.447V2.24c0 .059-.048.107-.107.107z" style="fill:var(--color1, #2196f3)"/></symbol><symbol id="icon-fb" viewBox="0 0 18 32"><path fill="#afb1b8" d="M13.329 5.313h2.921V.225C15.746.156 14.013 0 11.994 0 7.782 0 4.897 2.649 4.897 7.519V12H.249v5.688h4.648V32h5.699V17.689h4.46l.708-5.688h-5.169V8.082c.001-1.644.444-2.769 2.735-2.769z" style="fill:var(--color3, #afb1b8)"/></symbol><symbol id="icon-instagram" viewBox="0 0 32 32"><path fill="#afb1b8" d="M31.969 9.408c-.075-1.7-.35-2.869-.744-3.882-.406-1.075-1.032-2.038-1.851-2.838-.8-.813-1.769-1.444-2.832-1.844C25.523.45 24.36.175 22.66.1 20.947.019 20.403 0 16.059 0s-4.888.019-6.595.094c-1.7.075-2.869.35-3.882.744-1.075.406-2.038 1.031-2.838 1.85C1.931 3.488 1.3 4.457.9 5.52.506 6.539.231 7.702.156 9.402c-.081 1.713-.1 2.257-.1 6.601s.019 4.888.094 6.595c.075 1.7.35 2.869.744 3.882.406 1.075 1.038 2.038 1.85 2.838.8.813 1.769 1.444 2.832 1.844 1.019.394 2.182.669 3.882.744 1.706.075 2.25.094 6.595.094s4.888-.019 6.595-.094c1.7-.075 2.869-.35 3.882-.744 2.151-.832 3.851-2.532 4.682-4.682.394-1.019.669-2.182.744-3.882.075-1.707.094-2.251.094-6.595s-.006-4.888-.081-6.595zm-2.882 13.065c-.069 1.563-.331 2.407-.55 2.969-.538 1.394-1.644 2.5-3.038 3.038-.563.219-1.413.481-2.969.55-1.688.075-2.194.094-6.464.094s-4.782-.019-6.464-.094c-1.563-.069-2.407-.331-2.969-.55-.694-.256-1.325-.663-1.838-1.194-.531-.519-.938-1.144-1.194-1.838-.219-.563-.481-1.413-.55-2.969-.075-1.688-.094-2.194-.094-6.464s.019-4.782.094-6.464c.069-1.563.331-2.407.55-2.969.256-.694.663-1.325 1.2-1.838.519-.531 1.144-.938 1.838-1.194.563-.219 1.413-.481 2.969-.55 1.688-.075 2.194-.094 6.464-.094 4.276 0 4.782.019 6.464.094 1.563.069 2.407.331 2.969.55.694.256 1.325.662 1.838 1.194.531.519.938 1.144 1.194 1.838.219.563.481 1.413.55 2.969.075 1.688.094 2.194.094 6.464s-.019 4.77-.094 6.458z" style="fill:var(--color3, #afb1b8)"/><path fill="#afb1b8" d="M16.059 7.783c-4.538 0-8.22 3.682-8.22 8.22s3.682 8.22 8.22 8.22c4.539 0 8.22-3.682 8.22-8.22s-3.682-8.22-8.22-8.22zm0 13.552c-2.944 0-5.332-2.388-5.332-5.332s2.388-5.332 5.332-5.332 5.332 2.388 5.332 5.332-2.388 5.332-5.332 5.332zM26.524 7.458c0 1.06-.859 1.919-1.919 1.919s-1.919-.859-1.919-1.919.859-1.919 1.919-1.919 1.919.859 1.919 1.919z" style="fill:var(--color3, #afb1b8)"/></symbol><symbol id="icon-linkedin" viewBox="0 0 32 32"><path fill="#afb1b8" d="M31.992 32v-.001H32V20.263c0-5.741-1.236-10.164-7.948-10.164-3.227 0-5.392 1.771-6.276 3.449h-.093v-2.913h-6.364v21.364h6.627V21.42c0-2.785.528-5.479 3.977-5.479 3.399 0 3.449 3.179 3.449 5.657v10.401h6.62zM.528 10.636h6.635V32H.528V10.636zM3.843 0C1.722 0 0 1.721 0 3.843s1.721 3.879 3.843 3.879c2.121 0 3.843-1.757 3.843-3.879C7.685 1.722 5.963 0 3.843 0z" style="fill:var(--color3, #afb1b8)"/></symbol><symbol id="icon-poster" viewBox="0 0 65 32"><path fill="#2196f3" d="M10.016 9.983h-.002c-1.827 0-3.308 1.316-3.308 2.94v.002c0 1.624 1.481 2.94 3.308 2.94h.002c1.827 0 3.308-1.317 3.308-2.94v-.002c0-1.624-1.481-2.941-3.308-2.941zm24.418-.939c-.005-2.255-1.016-4.418-2.81-6.012S27.398.539 24.861.534c-2.539.004-4.972.902-6.767 2.497s-2.806 3.757-2.811 6.013v12.437s19.15-1.896 19.152-12.434v-.002zM0 25.562c.005 1.57.709 3.073 1.957 4.183s2.94 1.735 4.706 1.739c1.765-.005 3.457-.63 4.706-1.739s1.952-2.613 1.957-4.181V16.91S.002 18.23.002 25.562zm6.662 1.55c-.345 0-.682-.091-.969-.261-.279-.164-.499-.401-.638-.686l-.004-.009c-.084-.173-.132-.377-.132-.592 0-.107.012-.212.035-.312l-.002.009c.067-.301.233-.578.477-.794.243-.214.547-.364.882-.423l.011-.002c.103-.019.221-.03.341-.03.239 0 .469.043.68.122l-.013-.004c.319.117.592.316.783.571s.294.555.294.861c.001.204-.043.407-.131.596-.094.198-.221.366-.376.503l-.002.001c-.162.145-.354.259-.567.338-.199.075-.428.119-.668.119h-.001v-.006zm13.466-.854h-1.286v1.328h-.67v-3.251h2.117v.542h-1.447v.84h1.286v.54zm3.218-.223c0 .32-.056.6-.169.841s-.276.427-.488.558c-.199.124-.44.197-.698.197h-.025.001c-.27 0-.51-.065-.722-.194-.213-.134-.382-.322-.487-.546l-.003-.008c-.112-.236-.177-.512-.177-.804v-.028.001-.16c0-.32.058-.602.172-.844.116-.244.279-.431.489-.56.211-.131.452-.197.723-.197s.51.066.721.197c.211.13.374.316.489.56.116.242.174.523.174.841v.145zm-.678-.148c0-.341-.061-.6-.183-.777-.108-.161-.29-.266-.496-.266-.009 0-.018 0-.028.001h.001c-.008 0-.016-.001-.025-.001-.205 0-.387.104-.494.262l-.001.002c-.122.174-.184.43-.185.768v.158c0 .331.061.589.183.772s.297.274.527.274c.008 0 .017.001.026.001.204 0 .384-.104.49-.261l.001-.002c.12-.177.181-.434.183-.773v-.158zm2.85.846c0-.006.001-.012.001-.019 0-.11-.052-.208-.133-.27l-.001-.001c-.089-.069-.25-.14-.482-.214-.214-.067-.396-.142-.57-.232l.019.009c-.37-.2-.554-.469-.554-.806 0-.175.049-.332.147-.469.1-.139.242-.246.427-.324.186-.077.395-.116.625-.116.232 0 .439.042.621.127.181.084.322.201.421.355.101.152.152.328.152.522h-.67c0-.149-.046-.264-.14-.346-.094-.084-.226-.125-.395-.125-.164 0-.291.035-.382.105-.083.06-.136.156-.136.265v.008c0 .106.053.194.158.266.107.071.264.138.471.2.381.114.658.257.833.427s.261.381.261.634c0 .281-.107.503-.32.663s-.498.239-.859.239c-.25 0-.478-.046-.683-.137-.193-.082-.352-.211-.469-.373l-.002-.003c-.1-.15-.16-.335-.16-.533v-.022.001h.671c0 .358.214.538.643.538.159 0 .283-.032.373-.096.081-.058.134-.153.134-.259v-.013.001zm3.574-1.855h-.995v2.708h-.67v-2.708h-.981v-.542h2.647v.542zm2.339 1.3h-1.285v.871h1.509v.538h-2.178v-3.251h2.174v.542h-1.505v.775h1.286v.524zm1.819.218h-.533v1.19h-.67v-3.251h1.208c.384 0 .68.086.888.257s.312.413.312.725c0 .222-.048.408-.145.556-.108.156-.255.278-.429.35l-.006.002.702 1.328v.03h-.718l-.61-1.189zm-.533-.542h.541c.168 0 .297-.042.39-.126.086-.084.139-.201.139-.33 0-.009 0-.017-.001-.026v.001c0-.154-.043-.274-.131-.362s-.219-.132-.4-.132h-.538v.975zm4.058.587v1.145h-.67v-3.251h1.268c.244 0 .459.045.643.134.186.089.329.216.429.382.099.164.149.35.149.56 0 .318-.11.57-.328.754-.218.183-.519.275-.904.275h-.587zm0-.542h.598c.178 0 .312-.042.404-.125.094-.084.141-.203.141-.357 0-.007.001-.016.001-.024 0-.14-.053-.267-.141-.363-.094-.098-.223-.149-.389-.152h-.614v1.021zm4.236.279h-1.285v.871h1.509v.538h-2.178v-3.251h2.174v.542h-1.505v.775h1.286v.524zm3.108-1.3h-.996v2.708h-.67v-2.708h-.982v-.542h2.648v.542zm2.339 1.3h-1.285v.871h1.509v.538h-2.179v-3.251h2.174v.542h-1.504v.775h1.285v.524zm1.819.218h-.533v1.19h-.67v-3.251h1.208c.384 0 .68.086.888.257s.312.413.312.725c0 .222-.049.408-.145.556-.108.156-.256.278-.429.35l-.006.002.703 1.328v.03h-.718l-.61-1.189zm-.533-.542h.54c.168 0 .298-.042.39-.126.086-.084.139-.201.139-.331 0-.009 0-.017-.001-.025v.001c0-.154-.043-.274-.132-.362-.086-.088-.219-.132-.399-.132h-.538v.975zm3.935.88c0-.006.001-.012.001-.019 0-.11-.052-.208-.134-.271l-.001-.001c-.089-.069-.25-.14-.482-.214-.214-.067-.396-.142-.57-.232l.019.009c-.37-.2-.554-.469-.554-.806 0-.175.05-.332.147-.469.1-.139.242-.246.427-.324.186-.077.395-.116.625-.116.232 0 .439.042.621.127.181.084.322.201.421.355.101.152.152.328.152.522h-.67c0-.149-.046-.264-.14-.346-.094-.084-.226-.125-.395-.125-.164 0-.291.035-.382.105-.083.06-.137.156-.137.265v.007c0 .106.053.194.159.266s.264.138.471.2c.381.114.658.257.833.427s.261.381.261.634c0 .281-.107.503-.32.663s-.499.239-.859.239c-.25 0-.478-.046-.683-.137-.193-.082-.352-.211-.469-.373l-.002-.003c-.1-.15-.16-.335-.16-.533v-.022.001h.671c0 .358.214.538.643.538.159 0 .283-.032.373-.096.082-.058.134-.153.134-.26v-.013.001z" style="fill:var(--color1, #2196f3)"/></symbol><symbol id="icon-tel" viewBox="0 0 20 32"><path fill="#757575" d="M17 0H3C1.346 0 0 1.346 0 3v26c0 1.654 1.346 3 3 3h14c1.654 0 3-1.346 3-3V3c0-1.654-1.346-3-3-3zM3 2h14c.552 0 1 .448 1 1v21H2V3c0-.552.448-1 1-1zm14 28H3c-.552 0-1-.448-1-1v-3h16v3c0 .552-.448 1-1 1z" style="fill:var(--color4, #757575)"/></symbol><symbol id="icon-twitter-1" viewBox="0 0 32 32"><path fill="#afb1b8" d="M32 6.078c-1.19.522-2.458.868-3.78 1.036 1.36-.812 2.398-2.088 2.886-3.626-1.268.756-2.668 1.29-4.16 1.588C25.742 3.794 24.026 3 22.154 3c-3.632 0-6.556 2.948-6.556 6.562 0 .52.044 1.02.152 1.496-5.454-.266-10.28-2.88-13.522-6.862-.566.982-.898 2.106-.898 3.316 0 2.272 1.17 4.286 2.914 5.452-1.054-.02-2.088-.326-2.964-.808v.072c0 3.188 2.274 5.836 5.256 6.446-.534.146-1.116.216-1.72.216-.42 0-.844-.024-1.242-.112.85 2.598 3.262 4.508 6.13 4.57-2.232 1.746-5.066 2.798-8.134 2.798-.538 0-1.054-.024-1.57-.09C2.906 27.93 6.35 29 10.064 29c12.072 0 18.672-10 18.672-18.668 0-.29-.01-.57-.024-.848C30.014 8.56 31.108 7.406 32 6.078z" style="fill:var(--color3, #afb1b8)"/></symbol><symbol id="icon-Union" viewBox="0 0 37 32"><path fill="#afb1b8" d="M15.647 2.683h-.125c-.192-.012-.384-.016-.576-.021h-.416c-.363 0-.733.009-1.101.028-.012-.001-.027-.002-.042-.002s-.029.001-.043.002h.002c-3.332.189-6.596 1.022-9.615 2.453l-.396.191v20.243l.925-.314c.812-.279 1.677-.53 2.572-.763 2.42-.621 4.904-.951 7.401-.983v2.66c-.331.002-.652.012-.974.028h-.076c-1.922.105-3.829.398-5.694.874-2.363.592-4.642 1.48-6.784 2.643V3.759C2.93 2.461 5.326 1.487 7.822.864c2.192-.566 4.445-.856 6.707-.865h.391c.467.012.923.033 1.351.065 1.127.079 2.246.257 3.342.532v2.618c-1.065-.248-2.148-.411-3.238-.488l-.066-.006c-.226-.019-.452-.039-.662-.039zm4.607 2.676c.58.044 1.182.065 1.79.065 2.379-.009 4.747-.312 7.052-.904 2.361-.594 4.64-1.483 6.781-2.646v25.5c-2.226 1.297-4.622 2.271-7.119 2.895-2.192.564-4.445.853-6.707.863-1.714.014-3.424-.188-5.088-.6V4.867c.393.091.798.174 1.21.244.675.114 1.388.198 2.082.249zm12.978.198-.925.312c-.851.286-1.709.542-2.572.77-2.512.645-5.093.977-7.686.986-.604 0-1.159-.016-1.695-.051l-.738-.049V28.35l.634.056c.588.051 1.194.077 1.804.077 2.042-.009 4.075-.272 6.053-.783 1.628-.409 3.213-.978 4.73-1.7l.396-.191V5.559z" style="fill:var(--color3, #afb1b8)"/></symbol><symbol id="icon-ya" viewBox="0 0 28 32"><path fill="#afb1b8" d="m4.085 0 4.771 4.517L0 4.512v21.915h23.149v-8.379l4.766 4.512V.001H4.085zm18.854 17.517L9.411 4.71h13.528v12.807zm-4.2 5.704H3.663V8.482h1.066v13.741h14.01v.998zM7.223 29.344l-.557 1.147-.557-1.147h-.467l.813 1.529v.891h.422v-.891l.811-1.529h-.465zm.7 2.42.196-.563h.938l.198.563h.439l-.916-2.42h-.377l-.914 2.42h.437zm.665-1.906.351 1.004h-.701l.351-1.004zm2.217.946c-.061.093-.091.196-.091.307 0 .204.072.37.214.497.144.126.336.189.575.189s.445-.065.618-.194l.136.161h.469l-.356-.421c.14-.191.209-.435.209-.733h-.351c0 .163-.034.311-.101.444l-.467-.552.165-.12c.116-.084.2-.168.251-.253.051-.085.076-.178.076-.279 0-.153-.056-.281-.17-.384-.112-.104-.256-.156-.432-.156-.195 0-.35.055-.465.166-.115.11-.173.259-.173.449 0 .078.018.158.055.241.038.083.104.184.198.303-.18.129-.3.24-.361.334zm1.092.535c-.119.091-.246.136-.382.136-.121 0-.217-.035-.289-.105s-.108-.161-.108-.273c0-.13.067-.245.2-.346l.052-.037.529.623zm-.434-1.072c-.114-.141-.171-.258-.171-.351 0-.081.023-.148.07-.201s.109-.08.188-.08c.073 0 .133.023.181.068.048.044.072.098.072.161 0 .095-.034.173-.103.234l-.052.042-.184.126zm3.94 1.314c.166-.145.262-.347.286-.605h-.419c-.022.173-.075.296-.158.371s-.207.111-.372.111c-.181 0-.318-.069-.412-.206-.093-.137-.14-.337-.14-.598v-.214c.002-.258.052-.454.15-.587.099-.134.239-.201.422-.201.157 0 .277.039.357.116.082.076.133.202.153.376h.419c-.027-.265-.121-.47-.284-.615s-.378-.218-.645-.218c-.198 0-.373.047-.525.141-.151.094-.267.228-.347.402s-.121.375-.121.603v.226c.003.223.045.418.125.587s.193.299.339.391c.147.091.317.136.51.136.276 0 .497-.072.663-.216zm2.472-.339c.082-.18.123-.388.123-.625v-.135c-.001-.236-.043-.443-.126-.62-.083-.178-.201-.315-.354-.409-.152-.095-.326-.143-.524-.143s-.372.048-.525.145c-.152.095-.27.233-.354.414-.083.181-.125.389-.125.625v.136c.001.232.043.436.126.613.084.177.203.314.356.411.154.095.329.143.525.143.198 0 .373-.048.525-.143.153-.096.27-.234.352-.412zm-.451-1.368c.102.143.153.349.153.617v.126c0 .273-.05.48-.151.622-.1.142-.243.213-.429.213-.184 0-.328-.073-.432-.218-.103-.145-.155-.351-.155-.617v-.14c.002-.26.054-.462.156-.603.103-.143.245-.214.427-.214.186 0 .33.072.43.214z" style="fill:var(--color3, #afb1b8)"/></symbol></defs></svg>